<svg style="position: absolute; width: 0; height: 0;" width="0" height="0" version="1.1" xmlns="http://www.w3.org/2000/svg" xmlns:xlink="http://www.w3.org/1999/xlink">
<defs>
<symbol id="icon-calendar" viewBox="0 0 1024 1024">
<title>calendar</title>
<path class="path1" d="M320 384h128v128h-128zM512 384h128v128h-128zM704 384h128v128h-128zM128 768h128v128h-128zM320 768h128v128h-128zM512 768h128v128h-128zM320 576h128v128h-128zM512 576h128v128h-128zM704 576h128v128h-128zM128 576h128v128h-128zM832 0v64h-128v-64h-448v64h-128v-64h-128v1024h960v-1024h-128zM896 960h-832v-704h832v704z"></path>
</symbol>
<symbol id="icon-bubble" viewBox="0 0 1024 1024">
<title>bubble</title>
<path class="path1" d="M512 64c282.77 0 512 186.25 512 416 0 229.752-229.23 416-512 416-27.156 0-53.81-1.734-79.824-5.044-109.978 109.978-241.25 129.7-368.176 132.596v-26.916c68.536-33.578 128-94.74 128-164.636 0-9.754-0.758-19.33-2.164-28.696-115.796-76.264-189.836-192.754-189.836-323.304 0-229.75 229.23-416 512-416z"></path>
</symbol>
<symbol id="icon-bubbles" viewBox="0 0 1152 1024">
<title>bubbles</title>
<path class="path1" d="M1088 901.166c0 45.5 26.028 84.908 64 104.184v15.938c-10.626 1.454-21.472 2.224-32.5 2.224-68.008 0-129.348-28.528-172.722-74.264-26.222 6.982-54.002 10.752-82.778 10.752-159.058 0-288-114.616-288-256s128.942-256 288-256c159.058 0 288 114.616 288 256 0 55.348-19.764 106.592-53.356 148.466-6.824 14.824-10.644 31.312-10.644 48.7zM512 0c278.458 0 504.992 180.614 511.836 405.52-49.182-21.92-103.586-33.52-159.836-33.52-95.56 0-185.816 33.446-254.138 94.178-70.846 62.972-109.862 147.434-109.862 237.822 0 44.672 9.544 87.888 27.736 127.788-5.228 0.126-10.468 0.212-15.736 0.212-27.156 0-53.81-1.734-79.824-5.044-109.978 109.978-241.25 129.7-368.176 132.596v-26.916c68.536-33.578 128-94.74 128-164.636 0-9.754-0.758-19.33-2.164-28.696-115.796-76.264-189.836-192.754-189.836-323.304 0-229.75 229.23-416 512-416z"></path>
</symbol>
<symbol id="icon-user" viewBox="0 0 1024 1024">
<title>user</title>
<path class="path1" d="M576 706.612v-52.78c70.498-39.728 128-138.772 128-237.832 0-159.058 0-288-192-288s-192 128.942-192 288c0 99.060 57.502 198.104 128 237.832v52.78c-217.102 17.748-384 124.42-384 253.388h896c0-128.968-166.898-235.64-384-253.388z"></path>
</symbol>
<symbol id="icon-users" viewBox="0 0 1152 1024">
<title>users</title>
<path class="path1" d="M768 770.612v-52.78c70.498-39.728 128-138.772 128-237.832 0-159.058 0-288-192-288s-192 128.942-192 288c0 99.060 57.502 198.104 128 237.832v52.78c-217.102 17.748-384 124.42-384 253.388h896c0-128.968-166.898-235.64-384-253.388z"></path>
<path class="path2" d="M327.196 795.328c55.31-36.15 124.080-63.636 199.788-80.414-15.054-17.784-28.708-37.622-40.492-59.020-30.414-55.234-46.492-116.058-46.492-175.894 0-86.042 0-167.31 30.6-233.762 29.706-64.504 83.128-104.496 159.222-119.488-16.914-76.48-61.94-126.75-181.822-126.75-192 0-192 128.942-192 288 0 99.060 57.502 198.104 128 237.832v52.78c-217.102 17.748-384 124.42-384 253.388h279.006c14.518-12.91 30.596-25.172 48.19-36.672z"></path>
</symbol>
<symbol id="icon-user-tie" viewBox="0 0 1024 1024">
<title>user-tie</title>
<path class="path1" d="M320 192c0-106.039 85.961-192 192-192s192 85.961 192 192c0 106.039-85.961 192-192 192s-192-85.961-192-192zM768.078 448h-35.424l-199.104 404.244 74.45-372.244-96-96-96 96 74.45 372.244-199.102-404.244h-35.424c-127.924 0-127.924 85.986-127.924 192v320h768v-320c0-106.014 0-192-127.922-192z"></path>
</symbol>
<symbol id="icon-quotes-left" viewBox="0 0 1024 1024">
<title>quotes-left</title>
<path class="path1" d="M225 448c123.712 0 224 100.29 224 224 0 123.712-100.288 224-224 224s-224-100.288-224-224l-1-32c0-247.424 200.576-448 448-448v128c-85.474 0-165.834 33.286-226.274 93.726-11.634 11.636-22.252 24.016-31.83 37.020 11.438-1.8 23.16-2.746 35.104-2.746zM801 448c123.71 0 224 100.29 224 224 0 123.712-100.29 224-224 224s-224-100.288-224-224l-1-32c0-247.424 200.576-448 448-448v128c-85.474 0-165.834 33.286-226.274 93.726-11.636 11.636-22.254 24.016-31.832 37.020 11.44-1.8 23.16-2.746 35.106-2.746z"></path>
</symbol>
<symbol id="icon-hour-glass" viewBox="0 0 1024 1024">
<title>hour-glass</title>
<path class="path1" d="M728.992 512c137.754-87.334 231.008-255.208 231.008-448 0-21.676-1.192-43.034-3.478-64h-889.042c-2.29 20.968-3.48 42.326-3.48 64 0 192.792 93.254 360.666 231.006 448-137.752 87.334-231.006 255.208-231.006 448 0 21.676 1.19 43.034 3.478 64h889.042c2.288-20.966 3.478-42.324 3.478-64 0.002-192.792-93.252-360.666-231.006-448zM160 960c0-186.912 80.162-345.414 224-397.708v-100.586c-143.838-52.29-224-210.792-224-397.706v0h704c0 186.914-80.162 345.416-224 397.706v100.586c143.838 52.294 224 210.796 224 397.708h-704zM619.626 669.594c-71.654-40.644-75.608-93.368-75.626-125.366v-64.228c0-31.994 3.804-84.914 75.744-125.664 38.504-22.364 71.808-56.348 97.048-98.336h-409.582c25.266 42.032 58.612 76.042 97.166 98.406 71.654 40.644 75.606 93.366 75.626 125.366v64.228c0 31.992-3.804 84.914-75.744 125.664-72.622 42.18-126.738 125.684-143.090 226.336h501.67c-16.364-100.708-70.53-184.248-143.212-226.406z"></path>
</symbol>
<symbol id="icon-spinner10" viewBox="0 0 1024 1024">
<title>spinner10</title>
<path class="path1" d="M0.042 513.618l-0.022 0.004c0 0 0.012 0.090 0.028 0.222 0.11 3.878 0.55 7.676 1.322 11.352 0.204 1.746 0.428 3.66 0.674 5.774 0.222 1.886 0.46 3.914 0.718 6.078 0.374 2.566 0.77 5.292 1.19 8.176 0.856 5.746 1.8 12.124 2.908 18.958 1.348 6.446 2.804 13.414 4.364 20.864 0.71 3.718 1.776 7.504 2.786 11.406 1.024 3.89 2.078 7.894 3.16 12.004 0.566 2.042 1.040 4.132 1.708 6.208 0.656 2.074 1.32 4.176 1.988 6.3 1.348 4.234 2.726 8.566 4.136 12.988 0.352 1.106 0.708 2.21 1.064 3.324 0.408 1.102 0.814 2.208 1.226 3.316 0.826 2.218 1.658 4.458 2.502 6.714 1.696 4.496 3.422 9.078 5.18 13.742 1.968 4.566 3.97 9.214 6.004 13.934 1.018 2.348 2.044 4.714 3.078 7.098 1.048 2.376 2.27 4.704 3.408 7.074 2.322 4.714 4.678 9.496 7.062 14.332 2.47 4.786 5.208 9.512 7.846 14.328 1.336 2.398 2.68 4.808 4.028 7.23 1.368 2.41 2.902 4.75 4.356 7.14 2.95 4.738 5.93 9.524 8.934 14.348 12.64 18.894 26.676 37.566 42.21 55.278 15.712 17.578 32.726 34.25 50.692 49.602 18.18 15.136 37.264 28.902 56.726 41.114 19.604 12.036 39.644 22.312 59.376 31.144 5.004 2.040 9.964 4.062 14.878 6.066 2.462 0.972 4.868 2.032 7.336 2.918 2.47 0.868 4.93 1.734 7.376 2.594 4.898 1.684 9.678 3.468 14.484 4.992 4.832 1.43 9.604 2.844 14.312 4.242 2.356 0.672 4.66 1.426 7.004 2.012 2.346 0.574 4.676 1.14 6.986 1.704 4.606 1.118 9.142 2.214 13.604 3.296 4.5 0.868 8.926 1.722 13.27 2.558 2.166 0.41 4.31 0.82 6.434 1.222 1.062 0.2 2.118 0.398 3.166 0.598 1.060 0.148 2.118 0.292 3.166 0.442 4.192 0.582 8.292 1.152 12.3 1.71 1.998 0.274 3.972 0.546 5.922 0.816 1.946 0.286 3.904 0.378 5.814 0.57 3.822 0.336 7.544 0.664 11.164 0.98 3.616 0.304 7.104 0.688 10.526 0.738 0.23 0.008 0.452 0.016 0.682 0.026 0.614 34.812 29.008 62.846 63.968 62.846 0.542 0 1.080-0.028 1.62-0.042v0.022c0 0 0.090-0.012 0.224-0.028 3.878-0.11 7.674-0.55 11.35-1.322 1.748-0.204 3.662-0.426 5.776-0.672 1.884-0.222 3.912-0.462 6.076-0.718 2.566-0.376 5.292-0.772 8.176-1.192 5.746-0.856 12.124-1.8 18.958-2.908 6.446-1.348 13.414-2.804 20.864-4.362 3.718-0.712 7.504-1.778 11.406-2.786 3.892-1.026 7.894-2.080 12.004-3.162 2.044-0.566 4.132-1.040 6.208-1.708 2.074-0.656 4.174-1.318 6.3-1.988 4.232-1.348 8.564-2.726 12.988-4.134 1.104-0.354 2.21-0.708 3.324-1.066 1.1-0.406 2.206-0.814 3.316-1.226 2.216-0.824 4.456-1.658 6.714-2.5 4.496-1.698 9.078-3.424 13.74-5.182 4.568-1.968 9.216-3.97 13.936-6.004 2.348-1.018 4.714-2.044 7.098-3.078 2.376-1.048 4.702-2.27 7.074-3.408 4.714-2.322 9.494-4.678 14.33-7.062 4.786-2.47 9.512-5.208 14.328-7.846 2.398-1.336 4.808-2.678 7.23-4.028 2.41-1.366 4.75-2.9 7.14-4.354 4.738-2.952 9.524-5.93 14.35-8.936 18.89-12.64 37.564-26.674 55.278-42.21 17.574-15.712 34.248-32.726 49.602-50.69 15.136-18.182 28.902-37.264 41.112-56.728 12.036-19.602 22.314-39.644 31.142-59.376 2.042-5.002 4.062-9.964 6.068-14.878 0.974-2.462 2.032-4.868 2.918-7.334 0.87-2.472 1.732-4.932 2.592-7.376 1.686-4.898 3.468-9.678 4.994-14.484 1.432-4.832 2.846-9.604 4.24-14.31 0.674-2.358 1.43-4.66 2.016-7.004 0.57-2.348 1.138-4.676 1.702-6.988 1.118-4.606 2.216-9.14 3.296-13.602 0.868-4.502 1.72-8.928 2.558-13.272 0.41-2.164 0.818-4.308 1.222-6.434 0.2-1.060 0.398-2.116 0.596-3.164 0.148-1.062 0.296-2.118 0.444-3.168 0.582-4.19 1.152-8.292 1.708-12.3 0.278-1.996 0.55-3.97 0.82-5.922 0.284-1.946 0.376-3.902 0.568-5.812 0.336-3.822 0.664-7.546 0.98-11.164 0.304-3.616 0.686-7.106 0.738-10.528 0.020-0.534 0.040-1.044 0.058-1.574 35.224-0.146 63.732-28.738 63.732-63.992 0-0.542-0.028-1.080-0.042-1.62h0.022c0 0-0.012-0.090-0.028-0.224-0.11-3.878-0.55-7.674-1.322-11.35-0.204-1.748-0.428-3.662-0.674-5.776-0.222-1.886-0.46-3.914-0.718-6.076-0.374-2.566-0.77-5.294-1.19-8.176-0.856-5.746-1.8-12.124-2.908-18.958-1.348-6.444-2.804-13.414-4.364-20.862-0.71-3.72-1.776-7.506-2.786-11.408-1.024-3.892-2.078-7.894-3.16-12.002-0.566-2.044-1.040-4.134-1.708-6.208-0.656-2.076-1.32-4.174-1.988-6.3-1.348-4.234-2.726-8.566-4.136-12.99-0.352-1.102-0.708-2.21-1.064-3.324-0.408-1.1-0.814-2.206-1.226-3.316-0.826-2.216-1.658-4.454-2.502-6.714-1.696-4.498-3.422-9.080-5.18-13.74-1.968-4.57-3.97-9.216-6.004-13.936-1.020-2.348-2.044-4.714-3.078-7.098-1.048-2.376-2.27-4.702-3.408-7.076-2.322-4.714-4.678-9.494-7.062-14.33-2.47-4.786-5.208-9.512-7.846-14.328-1.336-2.398-2.68-4.808-4.028-7.23-1.368-2.41-2.902-4.75-4.356-7.14-2.95-4.74-5.93-9.524-8.934-14.35-12.64-18.892-26.676-37.564-42.21-55.278-15.712-17.576-32.726-34.25-50.692-49.602-18.18-15.136-37.264-28.902-56.726-41.112-19.604-12.036-39.644-22.314-59.376-31.142-5.004-2.040-9.964-4.062-14.878-6.068-2.462-0.974-4.868-2.032-7.336-2.918-2.47-0.87-4.93-1.734-7.376-2.592-4.898-1.684-9.678-3.468-14.484-4.994-4.832-1.432-9.604-2.846-14.312-4.242-2.356-0.672-4.66-1.428-7.004-2.014-2.346-0.572-4.676-1.138-6.986-1.702-4.606-1.118-9.142-2.216-13.604-3.298-4.5-0.868-8.926-1.72-13.27-2.558-2.166-0.412-4.31-0.82-6.434-1.222-1.062-0.2-2.118-0.398-3.166-0.596-1.060-0.148-2.118-0.296-3.166-0.442-4.192-0.584-8.292-1.154-12.3-1.71-1.998-0.276-3.972-0.55-5.922-0.82-1.946-0.284-3.904-0.376-5.814-0.57-3.822-0.336-7.544-0.664-11.164-0.98-3.616-0.304-7.104-0.686-10.526-0.738-0.852-0.032-1.674-0.062-2.512-0.092-0.65-34.78-29.028-62.778-63.966-62.778-0.542 0-1.080 0.028-1.62 0.042l-0.002-0.022c0 0-0.090 0.012-0.222 0.028-3.878 0.11-7.676 0.55-11.352 1.322-1.748 0.204-3.662 0.426-5.776 0.672-1.884 0.222-3.912 0.462-6.076 0.718-2.566 0.376-5.292 0.772-8.176 1.192-5.746 0.856-12.124 1.8-18.958 2.908-6.446 1.348-13.414 2.804-20.864 4.362-3.718 0.712-7.504 1.778-11.406 2.786-3.892 1.026-7.894 2.080-12.004 3.162-2.044 0.566-4.132 1.040-6.208 1.708-2.074 0.656-4.174 1.318-6.3 1.988-4.232 1.348-8.564 2.726-12.988 4.134-1.104 0.354-2.21 0.708-3.324 1.066-1.1 0.406-2.206 0.814-3.316 1.226-2.216 0.824-4.456 1.658-6.714 2.5-4.496 1.698-9.078 3.424-13.74 5.182-4.568 1.968-9.216 3.97-13.936 6.004-2.348 1.018-4.714 2.044-7.098 3.078-2.376 1.048-4.702 2.27-7.074 3.408-4.714 2.322-9.494 4.678-14.33 7.062-4.786 2.47-9.512 5.208-14.328 7.846-2.398 1.336-4.808 2.678-7.23 4.028-2.41 1.366-4.75 2.9-7.14 4.354-4.738 2.952-9.524 5.93-14.35 8.936-18.89 12.64-37.564 26.674-55.278 42.21-17.574 15.712-34.248 32.726-49.602 50.69-15.136 18.182-28.902 37.264-41.112 56.728-12.036 19.602-22.314 39.644-31.142 59.376-2.042 5.002-4.062 9.964-6.068 14.878-0.974 2.462-2.032 4.868-2.918 7.334-0.87 2.472-1.732 4.932-2.592 7.376-1.686 4.898-3.468 9.678-4.994 14.484-1.432 4.832-2.846 9.604-4.24 14.31-0.674 2.358-1.43 4.66-2.016 7.004-0.57 2.348-1.138 4.676-1.702 6.988-1.118 4.606-2.216 9.14-3.296 13.602-0.868 4.502-1.72 8.928-2.558 13.272-0.41 2.164-0.818 4.308-1.222 6.434-0.2 1.060-0.398 2.116-0.596 3.164-0.148 1.062-0.296 2.118-0.444 3.168-0.582 4.19-1.152 8.292-1.708 12.3-0.278 1.996-0.55 3.97-0.82 5.922-0.284 1.946-0.376 3.902-0.568 5.812-0.336 3.822-0.664 7.546-0.98 11.164-0.304 3.616-0.686 7.106-0.738 10.528-0.020 0.548-0.040 1.076-0.058 1.62-34.376 1.112-61.902 29.304-61.902 63.946 0 0.542 0.028 1.078 0.042 1.618zM73.518 448.706c0.042-0.196 0.086-0.384 0.128-0.58 0.644-3.248 1.632-6.542 2.556-9.942 0.934-3.388 1.894-6.876 2.88-10.454 0.516-1.78 0.934-3.602 1.546-5.406 0.596-1.802 1.202-3.628 1.81-5.476 1.218-3.682 2.464-7.45 3.736-11.294 0.316-0.958 0.634-1.924 0.956-2.892 0.37-0.954 0.74-1.914 1.114-2.876 0.746-1.924 1.5-3.868 2.26-5.83 1.52-3.904 3.070-7.882 4.646-11.93 1.768-3.96 3.566-7.99 5.392-12.080 0.908-2.038 1.824-4.090 2.746-6.156 0.932-2.060 2.036-4.072 3.052-6.126 2.070-4.084 4.17-8.222 6.294-12.412 2.202-4.142 4.654-8.224 6.998-12.392 1.184-2.074 2.374-4.16 3.57-6.256 1.21-2.086 2.586-4.102 3.876-6.166 2.616-4.098 5.256-8.232 7.918-12.402 11.234-16.298 23.632-32.398 37.33-47.638 13.874-15.104 28.842-29.404 44.598-42.548 15.974-12.928 32.686-24.65 49.676-35.022 17.13-10.194 34.6-18.838 51.734-26.258 4.35-1.7 8.662-3.382 12.934-5.050 2.136-0.812 4.216-1.71 6.36-2.444 2.146-0.714 4.28-1.428 6.404-2.136 4.25-1.386 8.382-2.888 12.548-4.142 4.184-1.174 8.314-2.332 12.392-3.474 2.038-0.55 4.026-1.19 6.054-1.662 2.030-0.458 4.044-0.914 6.044-1.368 3.978-0.91 7.896-1.806 11.748-2.688 3.888-0.686 7.71-1.36 11.462-2.022 1.868-0.33 3.716-0.658 5.546-0.98 0.914-0.162 1.824-0.324 2.728-0.484 0.916-0.112 1.828-0.222 2.734-0.332 3.612-0.448 7.148-0.882 10.604-1.31 1.72-0.216 3.422-0.432 5.102-0.644 1.674-0.226 3.364-0.266 5.010-0.408 3.292-0.238 6.498-0.472 9.616-0.7 3.11-0.218 6.11-0.524 9.058-0.508 5.848-0.132 11.32-0.256 16.38-0.372 4.664 0.168 8.948 0.324 12.818 0.462 1.914 0.054 3.726 0.108 5.432 0.156 2.122 0.134 4.108 0.26 5.958 0.378 2.13 0.138 4.060 0.266 5.82 0.38 3.256 0.51 6.592 0.782 9.99 0.782 0.466 0 0.93-0.026 1.396-0.036 0.132 0.008 0.224 0.014 0.224 0.014v-0.020c31.14-0.778 56.75-23.784 61.556-53.754 0.542 0.12 1.064 0.236 1.612 0.356 3.246 0.644 6.542 1.632 9.942 2.556 3.386 0.934 6.876 1.894 10.454 2.88 1.778 0.516 3.602 0.934 5.404 1.546 1.802 0.596 3.63 1.202 5.478 1.812 3.68 1.218 7.448 2.464 11.292 3.736 0.96 0.316 1.924 0.634 2.892 0.956 0.956 0.37 1.914 0.74 2.876 1.112 1.926 0.746 3.868 1.5 5.83 2.26 3.904 1.52 7.884 3.070 11.932 4.646 3.96 1.768 7.988 3.566 12.080 5.392 2.038 0.908 4.088 1.824 6.156 2.746 2.060 0.932 4.072 2.036 6.126 3.054 4.082 2.070 8.222 4.17 12.41 6.294 4.144 2.202 8.226 4.654 12.394 6.998 2.074 1.184 4.16 2.374 6.256 3.572 2.086 1.21 4.102 2.586 6.166 3.876 4.098 2.616 8.23 5.256 12.402 7.918 16.296 11.234 32.398 23.632 47.636 37.33 15.104 13.874 29.406 28.842 42.55 44.598 12.928 15.974 24.648 32.686 35.020 49.676 10.196 17.13 18.84 34.6 26.26 51.736 1.698 4.348 3.382 8.662 5.050 12.932 0.812 2.136 1.71 4.216 2.444 6.36 0.714 2.146 1.428 4.28 2.136 6.404 1.386 4.25 2.888 8.384 4.142 12.548 1.174 4.184 2.33 8.316 3.474 12.392 0.55 2.038 1.19 4.026 1.66 6.054 0.46 2.030 0.916 4.046 1.368 6.046 0.91 3.978 1.808 7.896 2.688 11.748 0.688 3.888 1.362 7.71 2.024 11.462 0.33 1.868 0.656 3.716 0.98 5.548 0.162 0.914 0.324 1.824 0.484 2.728 0.11 0.916 0.222 1.828 0.332 2.734 0.446 3.612 0.882 7.148 1.31 10.604 0.216 1.72 0.432 3.42 0.642 5.1 0.226 1.674 0.268 3.364 0.41 5.010 0.238 3.292 0.472 6.498 0.7 9.616 0.218 3.11 0.524 6.11 0.508 9.058 0.132 5.848 0.256 11.32 0.372 16.38-0.168 4.664-0.324 8.948-0.462 12.818-0.054 1.914-0.108 3.726-0.156 5.432-0.134 2.122-0.26 4.108-0.378 5.958-0.138 2.13-0.266 4.060-0.38 5.82-0.498 3.256-0.768 6.592-0.768 9.99 0 0.468 0.026 0.93 0.036 1.396-0.008 0.132-0.016 0.224-0.016 0.224h0.022c0.768 30.766 23.236 56.128 52.682 61.37-0.066 0.296-0.13 0.584-0.198 0.884-0.644 3.248-1.632 6.542-2.556 9.942-0.934 3.388-1.894 6.876-2.88 10.454-0.516 1.78-0.934 3.602-1.546 5.406-0.596 1.802-1.202 3.628-1.81 5.476-1.218 3.682-2.464 7.45-3.736 11.294-0.316 0.958-0.634 1.924-0.956 2.892-0.37 0.954-0.74 1.914-1.114 2.876-0.746 1.924-1.5 3.868-2.26 5.83-1.52 3.904-3.070 7.882-4.646 11.93-1.768 3.96-3.566 7.99-5.392 12.080-0.908 2.038-1.824 4.090-2.746 6.156-0.932 2.060-2.036 4.072-3.052 6.126-2.070 4.084-4.17 8.222-6.294 12.412-2.202 4.142-4.654 8.224-6.998 12.392-1.184 2.074-2.374 4.16-3.57 6.256-1.21 2.086-2.586 4.102-3.876 6.166-2.616 4.098-5.256 8.232-7.918 12.402-11.234 16.298-23.632 32.398-37.33 47.638-13.874 15.104-28.842 29.404-44.598 42.548-15.974 12.928-32.686 24.65-49.676 35.022-17.13 10.194-34.6 18.838-51.734 26.258-4.35 1.7-8.662 3.382-12.934 5.050-2.136 0.812-4.216 1.71-6.36 2.444-2.146 0.714-4.28 1.428-6.404 2.136-4.25 1.386-8.382 2.888-12.548 4.142-4.184 1.174-8.314 2.332-12.392 3.474-2.038 0.55-4.026 1.19-6.054 1.662-2.030 0.458-4.044 0.914-6.044 1.368-3.978 0.91-7.896 1.806-11.748 2.688-3.888 0.686-7.71 1.36-11.462 2.022-1.868 0.33-3.716 0.658-5.546 0.98-0.914 0.162-1.824 0.324-2.728 0.484-0.916 0.112-1.828 0.222-2.734 0.332-3.612 0.448-7.148 0.882-10.604 1.31-1.72 0.216-3.422 0.432-5.102 0.644-1.674 0.226-3.364 0.266-5.010 0.408-3.292 0.238-6.498 0.472-9.616 0.7-3.11 0.218-6.11 0.524-9.058 0.508-5.848 0.132-11.32 0.256-16.38 0.372-4.664-0.168-8.948-0.324-12.818-0.462-1.914-0.054-3.726-0.108-5.432-0.156-2.122-0.134-4.108-0.26-5.958-0.378-2.13-0.138-4.060-0.266-5.82-0.38-3.256-0.51-6.592-0.782-9.99-0.782-0.466 0-0.93 0.026-1.396 0.036-0.132-0.008-0.224-0.014-0.224-0.014v0.020c-31.004 0.774-56.524 23.586-61.488 53.364-3.2-0.64-6.446-1.61-9.792-2.522-3.386-0.934-6.876-1.894-10.454-2.878-1.778-0.516-3.602-0.938-5.404-1.546-1.802-0.598-3.63-1.204-5.478-1.812-3.68-1.218-7.448-2.464-11.292-3.738-0.96-0.316-1.924-0.632-2.892-0.954-0.956-0.372-1.914-0.742-2.876-1.114-1.926-0.746-3.868-1.5-5.83-2.258-3.904-1.524-7.884-3.070-11.932-4.648-3.96-1.77-7.988-3.566-12.080-5.39-2.038-0.91-4.088-1.824-6.156-2.746-2.060-0.934-4.072-2.036-6.126-3.054-4.082-2.070-8.222-4.172-12.41-6.296-4.144-2.2-8.226-4.652-12.394-6.996-2.074-1.184-4.16-2.376-6.256-3.57-2.086-1.21-4.102-2.586-6.166-3.878-4.098-2.614-8.23-5.254-12.402-7.918-16.296-11.23-32.398-23.632-47.636-37.328-15.104-13.876-29.406-28.84-42.55-44.598-12.928-15.972-24.648-32.684-35.020-49.676-10.196-17.128-18.84-34.602-26.26-51.734-1.698-4.352-3.382-8.664-5.050-12.934-0.812-2.136-1.71-4.218-2.444-6.36-0.714-2.148-1.428-4.282-2.136-6.406-1.386-4.25-2.888-8.382-4.142-12.546-1.174-4.184-2.33-8.316-3.474-12.394-0.55-2.036-1.19-4.024-1.66-6.054-0.46-2.028-0.916-4.042-1.368-6.042-0.91-3.98-1.808-7.898-2.688-11.75-0.688-3.886-1.362-7.71-2.024-11.46-0.33-1.868-0.656-3.718-0.98-5.546-0.162-0.914-0.324-1.824-0.484-2.73-0.11-0.914-0.222-1.828-0.332-2.734-0.446-3.61-0.882-7.148-1.31-10.602-0.216-1.722-0.432-3.422-0.642-5.102-0.226-1.676-0.268-3.364-0.41-5.012-0.238-3.29-0.472-6.496-0.7-9.614-0.218-3.11-0.524-6.11-0.508-9.058-0.132-5.848-0.256-11.32-0.372-16.382 0.168-4.664 0.324-8.946 0.462-12.816 0.054-1.914 0.108-3.726 0.156-5.434 0.134-2.122 0.26-4.106 0.378-5.958 0.138-2.128 0.266-4.058 0.38-5.82 0.496-3.26 0.766-6.596 0.766-9.994 0-0.466-0.026-0.93-0.036-1.396 0.008-0.132 0.016-0.224 0.016-0.224h-0.022c-0.78-31.38-24.134-57.154-54.44-61.674z"></path>
</symbol>
<symbol id="icon-cog" viewBox="0 0 1024 1024">
<title>cog</title>
<path class="path1" d="M933.79 610.25c-53.726-93.054-21.416-212.304 72.152-266.488l-100.626-174.292c-28.75 16.854-62.176 26.518-97.846 26.518-107.536 0-194.708-87.746-194.708-195.99h-201.258c0.266 33.41-8.074 67.282-25.958 98.252-53.724 93.056-173.156 124.702-266.862 70.758l-100.624 174.292c28.97 16.472 54.050 40.588 71.886 71.478 53.638 92.908 21.512 211.92-71.708 266.224l100.626 174.292c28.65-16.696 61.916-26.254 97.4-26.254 107.196 0 194.144 87.192 194.7 194.958h201.254c-0.086-33.074 8.272-66.57 25.966-97.218 53.636-92.906 172.776-124.594 266.414-71.012l100.626-174.29c-28.78-16.466-53.692-40.498-71.434-71.228zM512 719.332c-114.508 0-207.336-92.824-207.336-207.334 0-114.508 92.826-207.334 207.336-207.334 114.508 0 207.332 92.826 207.332 207.334-0.002 114.51-92.824 207.334-207.332 207.334z"></path>
</symbol>
<symbol id="icon-cogs" viewBox="0 0 1024 1024">
<title>cogs</title>
<path class="path1" d="M363.722 722.052l41.298-57.816-45.254-45.256-57.818 41.296c-10.722-5.994-22.204-10.774-34.266-14.192l-11.682-70.084h-64l-11.68 70.086c-12.062 3.418-23.544 8.198-34.266 14.192l-57.818-41.298-45.256 45.256 41.298 57.816c-5.994 10.72-10.774 22.206-14.192 34.266l-70.086 11.682v64l70.086 11.682c3.418 12.060 8.198 23.544 14.192 34.266l-41.298 57.816 45.254 45.256 57.818-41.296c10.722 5.994 22.204 10.774 34.266 14.192l11.682 70.084h64l11.68-70.086c12.062-3.418 23.544-8.198 34.266-14.192l57.818 41.296 45.254-45.256-41.298-57.816c5.994-10.72 10.774-22.206 14.192-34.266l70.088-11.68v-64l-70.086-11.682c-3.418-12.060-8.198-23.544-14.192-34.266zM224 864c-35.348 0-64-28.654-64-64s28.652-64 64-64 64 28.654 64 64-28.652 64-64 64zM1024 384v-64l-67.382-12.25c-1.242-8.046-2.832-15.978-4.724-23.79l57.558-37.1-24.492-59.128-66.944 14.468c-4.214-6.91-8.726-13.62-13.492-20.13l39.006-56.342-45.256-45.254-56.342 39.006c-6.512-4.766-13.22-9.276-20.13-13.494l14.468-66.944-59.128-24.494-37.1 57.558c-7.812-1.892-15.744-3.482-23.79-4.724l-12.252-67.382h-64l-12.252 67.382c-8.046 1.242-15.976 2.832-23.79 4.724l-37.098-57.558-59.128 24.492 14.468 66.944c-6.91 4.216-13.62 8.728-20.13 13.494l-56.342-39.006-45.254 45.254 39.006 56.342c-4.766 6.51-9.278 13.22-13.494 20.13l-66.944-14.468-24.492 59.128 57.558 37.1c-1.892 7.812-3.482 15.742-4.724 23.79l-67.384 12.252v64l67.382 12.25c1.242 8.046 2.832 15.978 4.724 23.79l-57.558 37.1 24.492 59.128 66.944-14.468c4.216 6.91 8.728 13.618 13.494 20.13l-39.006 56.342 45.254 45.256 56.342-39.006c6.51 4.766 13.22 9.276 20.13 13.492l-14.468 66.944 59.128 24.492 37.102-57.558c7.81 1.892 15.742 3.482 23.788 4.724l12.252 67.384h64l12.252-67.382c8.044-1.242 15.976-2.832 23.79-4.724l37.1 57.558 59.128-24.492-14.468-66.944c6.91-4.216 13.62-8.726 20.13-13.492l56.342 39.006 45.256-45.256-39.006-56.342c4.766-6.512 9.276-13.22 13.492-20.13l66.944 14.468 24.492-59.13-57.558-37.1c1.892-7.812 3.482-15.742 4.724-23.79l67.382-12.25zM672 491.2c-76.878 0-139.2-62.322-139.2-139.2s62.32-139.2 139.2-139.2 139.2 62.322 139.2 139.2c0 76.878-62.32 139.2-139.2 139.2z"></path>
</symbol>
<symbol id="icon-hammer" viewBox="0 0 1024 1024">
<title>hammer</title>
<path class="path1" d="M1009.996 828.976l-301.544-301.544c-18.668-18.668-49.214-18.668-67.882 0l-22.626 22.626-184-184 302.056-302.058h-320l-142.058 142.058-14.060-14.058h-67.882v67.882l14.058 14.058-206.058 206.060 160 160 206.058-206.058 184 184-22.626 22.626c-18.668 18.668-18.668 49.214 0 67.882l301.544 301.544c18.668 18.668 49.214 18.668 67.882 0l113.136-113.136c18.67-18.666 18.67-49.214 0.002-67.882z"></path>
</symbol>
<symbol id="icon-pie-chart" viewBox="0 0 1024 1024">
<title>pie-chart</title>
<path class="path1" d="M448 576v-448c-247.424 0-448 200.576-448 448s200.576 448 448 448 448-200.576 448-448c0-72.034-17.028-140.084-47.236-200.382l-400.764 200.382zM912.764 247.618c-73.552-146.816-225.374-247.618-400.764-247.618v448l400.764-200.382z"></path>
</symbol>
<symbol id="icon-stats-dots" viewBox="0 0 1024 1024">
<title>stats-dots</title>
<path class="path1" d="M128 896h896v128h-1024v-1024h128zM288 832c-53.020 0-96-42.98-96-96s42.98-96 96-96c2.828 0 5.622 0.148 8.388 0.386l103.192-171.986c-9.84-15.070-15.58-33.062-15.58-52.402 0-53.020 42.98-96 96-96s96 42.98 96 96c0 19.342-5.74 37.332-15.58 52.402l103.192 171.986c2.766-0.238 5.56-0.386 8.388-0.386 2.136 0 4.248 0.094 6.35 0.23l170.356-298.122c-10.536-15.408-16.706-34.036-16.706-54.11 0-53.020 42.98-96 96-96s96 42.98 96 96c0 53.020-42.98 96-96 96-2.14 0-4.248-0.094-6.35-0.232l-170.356 298.124c10.536 15.406 16.706 34.036 16.706 54.11 0 53.020-42.98 96-96 96s-96-42.98-96-96c0-19.34 5.74-37.332 15.578-52.402l-103.19-171.984c-2.766 0.238-5.56 0.386-8.388 0.386s-5.622-0.146-8.388-0.386l-103.192 171.986c9.84 15.068 15.58 33.060 15.58 52.4 0 53.020-42.98 96-96 96z"></path>
</symbol>
<symbol id="icon-stats-bars" viewBox="0 0 1024 1024">
<title>stats-bars</title>
<path class="path1" d="M0 832h1024v128h-1024zM128 576h128v192h-128zM320 320h128v448h-128zM512 512h128v256h-128zM704 128h128v640h-128z"></path>
</symbol>
<symbol id="icon-trophy" viewBox="0 0 1024 1024">
<title>trophy</title>
<path class="path1" d="M832 192v-128h-640v128h-192v128c0 106.038 85.958 192 192 192 20.076 0 39.43-3.086 57.62-8.802 46.174 66.008 116.608 113.796 198.38 130.396v198.406h-64c-70.694 0-128 57.306-128 128h512c0-70.694-57.306-128-128-128h-64v-198.406c81.772-16.6 152.206-64.386 198.38-130.396 18.19 5.716 37.544 8.802 57.62 8.802 106.042 0 192-85.962 192-192v-128h-192zM192 436c-63.962 0-116-52.038-116-116v-64h116v64c0 40.186 7.43 78.632 20.954 114.068-6.802 1.246-13.798 1.932-20.954 1.932zM948 320c0 63.962-52.038 116-116 116-7.156 0-14.152-0.686-20.954-1.932 13.524-35.436 20.954-73.882 20.954-114.068v-64h116v64z"></path>
</symbol>
<symbol id="icon-rocket" viewBox="0 0 1024 1024">
<title>rocket</title>
<path class="path1" d="M704 64l-320 320h-192l-192 256c0 0 203.416-56.652 322.066-30.084l-322.066 414.084 421.902-328.144c58.838 134.654-37.902 328.144-37.902 328.144l256-192v-192l320-320 64-320-320 64z"></path>
</symbol>
<symbol id="icon-lab" viewBox="0 0 1024 1024">
<title>lab</title>
<path class="path1" d="M956.29 804.482l-316.29-527.024v-213.458h32c17.6 0 32-14.4 32-32s-14.4-32-32-32h-320c-17.6 0-32 14.4-32 32s14.4 32 32 32h32v213.458l-316.288 527.024c-72.442 120.734-16.512 219.518 124.288 219.518h640c140.8 0 196.73-98.784 124.29-219.518zM241.038 640l206.962-344.938v-231.062h128v231.062l206.964 344.938h-541.926z"></path>
</symbol>
<symbol id="icon-shield" viewBox="0 0 1024 1024">
<title>shield</title>
<path class="path1" d="M960 0l-448 128-448-128c0 0-4.5 51.698 0 128l448 140.090 448-140.090c4.498-76.302 0-128 0-128zM72.19 195.106c23.986 250.696 113.49 672.234 439.81 828.894 326.32-156.66 415.824-578.198 439.81-828.894l-439.81 165.358-439.81-165.358z"></path>
</symbol>
<symbol id="icon-power" viewBox="0 0 1024 1024">
<title>power</title>
<path class="path1" d="M384 0l-384 512h384l-256 512 896-640h-512l384-384z"></path>
</symbol>
<symbol id="icon-list-numbered" viewBox="0 0 1024 1024">
<title>list-numbered</title>
<path class="path1" d="M384 832h640v128h-640zM384 448h640v128h-640zM384 64h640v128h-640zM192 0v256h-64v-192h-64v-64zM128 526v50h128v64h-192v-146l128-60v-50h-128v-64h192v146zM256 704v320h-192v-64h128v-64h-128v-64h128v-64h-128v-64z"></path>
</symbol>
<symbol id="icon-list" viewBox="0 0 1024 1024">
<title>list</title>
<path class="path1" d="M0 0h256v256h-256zM384 64h640v128h-640zM0 384h256v256h-256zM384 448h640v128h-640zM0 768h256v256h-256zM384 832h640v128h-640z"></path>
</symbol>
<symbol id="icon-list2" viewBox="0 0 1024 1024">
<title>list2</title>
<path class="path1" d="M384 64h640v128h-640v-128zM384 448h640v128h-640v-128zM384 832h640v128h-640v-128zM0 128c0-70.692 57.308-128 128-128s128 57.308 128 128c0 70.692-57.308 128-128 128s-128-57.308-128-128zM0 512c0-70.692 57.308-128 128-128s128 57.308 128 128c0 70.692-57.308 128-128 128s-128-57.308-128-128zM0 896c0-70.692 57.308-128 128-128s128 57.308 128 128c0 70.692-57.308 128-128 128s-128-57.308-128-128z"></path>
</symbol>
<symbol id="icon-eye" viewBox="0 0 1024 1024">
<title>eye</title>
<path class="path1" d="M512 192c-223.318 0-416.882 130.042-512 320 95.118 189.958 288.682 320 512 320 223.312 0 416.876-130.042 512-320-95.116-189.958-288.688-320-512-320zM764.45 361.704c60.162 38.374 111.142 89.774 149.434 150.296-38.292 60.522-89.274 111.922-149.436 150.296-75.594 48.218-162.89 73.704-252.448 73.704-89.56 0-176.858-25.486-252.452-73.704-60.158-38.372-111.138-89.772-149.432-150.296 38.292-60.524 89.274-111.924 149.434-150.296 3.918-2.5 7.876-4.922 11.86-7.3-9.96 27.328-15.41 56.822-15.41 87.596 0 141.382 114.616 256 256 256 141.382 0 256-114.618 256-256 0-30.774-5.452-60.268-15.408-87.598 3.978 2.378 7.938 4.802 11.858 7.302v0zM512 416c0 53.020-42.98 96-96 96s-96-42.98-96-96 42.98-96 96-96 96 42.982 96 96z"></path>
</symbol>
<symbol id="icon-notification" viewBox="0 0 1024 1024">
<title>notification</title>
<path class="path1" d="M512 96c-111.118 0-215.584 43.272-294.156 121.844s-121.844 183.038-121.844 294.156c0 111.118 43.272 215.584 121.844 294.156s183.038 121.844 294.156 121.844c111.118 0 215.584-43.272 294.156-121.844s121.844-183.038 121.844-294.156c0-111.118-43.272-215.584-121.844-294.156s-183.038-121.844-294.156-121.844zM512 0v0c282.77 0 512 229.23 512 512s-229.23 512-512 512c-282.77 0-512-229.23-512-512s229.23-512 512-512zM448 704h128v128h-128zM448 192h128v384h-128z"></path>
</symbol>
<symbol id="icon-checkbox-checked" viewBox="0 0 1024 1024">
<title>checkbox-checked</title>
<path class="path1" d="M896 0h-768c-70.4 0-128 57.6-128 128v768c0 70.4 57.6 128 128 128h768c70.4 0 128-57.6 128-128v-768c0-70.4-57.6-128-128-128zM448 794.51l-237.254-237.256 90.51-90.508 146.744 146.744 306.746-306.746 90.508 90.51-397.254 397.256z"></path>
</symbol>
<symbol id="r-language" viewBox="0 0 768 768">
<title>checkbox-checked</title>
<path class="path1" d="M361.5,485.9C162.3,485.9,0.9,377.8,0.9,244.5C0.9,111.1,162.3,3,361.5,3C560.6,3,722,111.1,722,244.5 C722,377.8,560.6,485.9,361.5,485.9z M416.6,97.4c-151.4,0-274,73.9-274,165.1s122.7,165.1,274,165.1c151.4,0,263-50.5,263-165.1 C679.7,148,568,97.4,416.6,97.4z"></path>
<path class="path1" d="M550,377c0,0,21.8,6.6,34.5,13c4.4,2.2,12,6.7,17.5,12.5c5.4,5.7,8,11.5,8,11.5l86,145l-139,0.1L492,437 c0,0-13.3-22.9-21.5-29.5c-6.8-5.5-9.7-7.5-16.5-7.5c-4.7,0-33,0-33,0l0,159L298,559V152.9h247c0,0,112.5,2,112.5,109.1 S550,377,550,377z M496.5,241l-74.5,0l0,69.1l74.5,0c0,0,34.5-0.1,34.5-35.1C531,239.2,496.5,241,496.5,241z"></path>
</symbol>
<symbol id="python-language" viewBox="0 0 512 512">
<title>checkbox-checked</title>
<!-- <path class="path1" d="M2765 5864 c-592 -46 -965 -213 -1063 -477 -25 -66 -25 -66 -23 -469 l1 -338 700 0 700 0 0 -100 0 -100 -1027 0 c-815 -1 -1044 -3 -1103 -14 -365 -65 -625 -367 -719 -834 -63 -307 -66 -703 -9 -1036 50 -297 148 -524 295 -685 80 -88 181 -156 292 -195 l86 -31 292 -3 291 -3 5 418 c4 482 8 506 98 691 42 86 64 117 127 181 104 106 202 159 362 199 56 13 183 16 910 22 831 6 846 6 925 28 259 71 435 228 513 457 l27 80 5 760 c3 418 2 785 -3 815 -4 30 -25 91 -46 135 -126 257 -427 415 -916 481 -105 14 -605 27 -720 18z m-380 -458 c198 -94 190 -376 -14 -464 -20 -8 -63 -15 -96 -15 -235 -1 -348 281 -176 436 58 52 94 66 171 67 48 0 78 -6 115 -24z"/> -->
<path class="path1" d="M253.806,1.783c-20.678,0.098-40.426,1.859-57.803,4.935c-51.187,9.044-60.48,27.97-60.48,62.877v46.103    h120.963v15.366H135.522H90.126c-35.155,0-65.937,21.13-75.563,61.325c-11.107,46.075-11.603,74.83,0,122.939    c8.599,35.808,29.13,61.324,64.286,61.324h41.589v-55.269c0-39.921,34.544-75.143,75.564-75.143h120.822    c33.632,0,60.479-27.689,60.479-61.466V69.594c0-32.776-27.653-57.406-60.479-62.877C296.045,3.257,274.483,1.684,253.806,1.783z     M188.391,38.86c12.494,0,22.699,10.37,22.699,23.12c0,12.705-10.205,22.982-22.699,22.982c-12.542,0-22.699-10.277-22.699-22.982    C165.692,49.23,175.849,38.86,188.391,38.86z" id="path1948_1_"/><path d="M392.387,131.062v53.712c0,41.648-35.303,76.692-75.562,76.692H196.002    c-33.094,0-60.48,28.327-60.48,61.469v115.186c0,32.777,28.503,52.063,60.48,61.463c38.291,11.259,75.004,13.3,120.822,0    c30.451-8.812,60.479-26.561,60.479-61.463v-46.105H256.485v-15.364h120.817h60.479c35.157,0,48.26-24.519,60.482-61.324    c12.629-37.895,12.093-74.335,0-122.939c-8.687-34.993-25.281-61.325-60.482-61.325H392.387z M324.438,422.75    c12.539,0,22.698,10.269,22.698,22.975c0,12.749-10.159,23.124-22.698,23.124c-12.493,0-22.696-10.375-22.696-23.124    C301.741,433.019,311.944,422.75,324.438,422.75z"></path>
</symbol>

</defs>
</svg>
